<?xml version="1.0" encoding="UTF-8"?>
<svg width="45px" height="45px" viewBox="0 0 45 45" version="1.1" xmlns="http://www.w3.org/2000/svg" xmlns:xlink="http://www.w3.org/1999/xlink">
    <!-- Generator: Sketch 54.1 (76490) - https://sketchapp.com -->
    <title>Instagram_Icon</title>
    <desc>Created with Sketch.</desc>
    <g id="Page-1" stroke="none" stroke-width="1" fill="none" fill-rule="evenodd">
        <g id="01_Mobile" transform="translate(-138.000000, -3633.000000)">
            <g id="Group-4" transform="translate(73.000000, 3633.000000)">
                <g id="Instagram_Icon" transform="translate(65.000000, 0.000000)">
                    <g id="Instagram" transform="translate(15.000000, 15.000000)" fill="#CE596B">
                        <path d="M7.99749206,1.70530257e-13 C5.82549206,1.70530257e-13 5.55314286,0.00920634921 4.70012698,0.0481269841 C3.84888889,0.086952381 3.26752381,0.22215873 2.7588254,0.419873016 C2.23292063,0.624222222 1.78692063,0.89768254 1.34228571,1.34228571 C0.89768254,1.78692063 0.624222222,2.23292063 0.419873016,2.7588254 C0.22215873,3.26752381 0.086952381,3.84888889 0.0481269841,4.70012698 C0.00920634921,5.55314286 0,5.82549206 0,7.99749206 C0,10.1694603 0.00920634921,10.4418095 0.0481269841,11.2948254 C0.086952381,12.1460635 0.22215873,12.7274286 0.419873016,13.236127 C0.624222222,13.7620317 0.89768254,14.2080317 1.34228571,14.6526667 C1.78692063,15.0972698 2.23292063,15.3707302 2.7588254,15.5751111 C3.26752381,15.7727937 3.84888889,15.908 4.70012698,15.9468254 C5.55314286,15.985746 5.82549206,15.9949524 7.99749206,15.9949524 C10.1694603,15.9949524 10.4418095,15.985746 11.2948254,15.9468254 C12.1460635,15.908 12.7274286,15.7727937 13.236127,15.5751111 C13.7620317,15.3707302 14.2080317,15.0972698 14.6526667,14.6526667 C15.0972698,14.2080317 15.3707302,13.7620317 15.5751111,13.236127 C15.7727937,12.7274286 15.908,12.1460635 15.9468254,11.2948254 C15.985746,10.4418095 15.9949524,10.1694603 15.9949524,7.99749206 C15.9949524,5.82549206 15.985746,5.55314286 15.9468254,4.70012698 C15.908,3.84888889 15.7727937,3.26752381 15.5751111,2.7588254 C15.3707302,2.23292063 15.0972698,1.78692063 14.6526667,1.34228571 C14.2080317,0.89768254 13.7620317,0.624222222 13.236127,0.419873016 C12.7274286,0.22215873 12.1460635,0.086952381 11.2948254,0.0481269841 C10.4418095,0.00920634921 10.1694603,1.70530257e-13 7.99749206,1.70530257e-13 Z M7.99749206,1.44098413 C10.1328889,1.44098413 10.3858413,1.44914286 11.2291429,1.48761905 C12.0088889,1.5231746 12.4323492,1.65346032 12.7141587,1.76298413 C13.0874603,1.90806349 13.353873,2.08136508 13.6337143,2.3612381 C13.9135873,2.64107937 14.0868889,2.90749206 14.2319683,3.28079365 C14.3414921,3.56260317 14.4717778,3.98606349 14.5073333,4.76580952 C14.5458095,5.60911111 14.5539683,5.86206349 14.5539683,7.99749206 C14.5539683,10.1328889 14.5458095,10.3858413 14.5073333,11.2291429 C14.4717778,12.0088889 14.3414921,12.4323492 14.2319683,12.7141587 C14.0868889,13.0874603 13.9135873,13.353873 13.6337143,13.6337143 C13.353873,13.9135873 13.0874603,14.0868889 12.7141587,14.2319683 C12.4323492,14.3414921 12.0088889,14.4717778 11.2291429,14.5073333 C10.3859683,14.5458095 10.1330476,14.5539683 7.99749206,14.5539683 C5.86190476,14.5539683 5.60901587,14.5458095 4.76580952,14.5073333 C3.98606349,14.4717778 3.56260317,14.3414921 3.28079365,14.2319683 C2.90749206,14.0868889 2.64107937,13.9135873 2.3612381,13.6337143 C2.08139683,13.353873 1.90806349,13.0874603 1.76298413,12.7141587 C1.65346032,12.4323492 1.5231746,12.0088889 1.48761905,11.2291429 C1.44914286,10.3858413 1.44098413,10.1328889 1.44098413,7.99749206 C1.44098413,5.86206349 1.44914286,5.60911111 1.48761905,4.76580952 C1.5231746,3.98606349 1.65346032,3.56260317 1.76298413,3.28079365 C1.90806349,2.90749206 2.08136508,2.64107937 2.3612381,2.3612381 C2.64107937,2.08136508 2.90749206,1.90806349 3.28079365,1.76298413 C3.56260317,1.65346032 3.98606349,1.5231746 4.76580952,1.48761905 C5.60911111,1.44914286 5.86206349,1.44098413 7.99749206,1.44098413 L7.99749206,1.44098413 Z" id="Fill-1"></path>
                        <path d="M7.99749206,10.6633016 C6.5251746,10.6633016 5.33165079,9.46977778 5.33165079,7.99749206 C5.33165079,6.5251746 6.5251746,5.33165079 7.99749206,5.33165079 C9.46977778,5.33165079 10.6633016,6.5251746 10.6633016,7.99749206 C10.6633016,9.46977778 9.46977778,10.6633016 7.99749206,10.6633016 Z M7.99749206,3.89066667 C5.72933333,3.89066667 3.89066667,5.72933333 3.89066667,7.99749206 C3.89066667,10.265619 5.72933333,12.1042857 7.99749206,12.1042857 C10.265619,12.1042857 12.1042857,10.265619 12.1042857,7.99749206 C12.1042857,5.72933333 10.265619,3.89066667 7.99749206,3.89066667 L7.99749206,3.89066667 Z" id="Fill-4"></path>
                        <path d="M13.226254,3.7284127 C13.226254,4.25844444 12.7965714,4.68809524 12.2665397,4.68809524 C11.7365397,4.68809524 11.3068571,4.25844444 11.3068571,3.7284127 C11.3068571,3.19838095 11.7365397,2.76869841 12.2665397,2.76869841 C12.7965714,2.76869841 13.226254,3.19838095 13.226254,3.7284127" id="Fill-5"></path>
                    </g>
                    <rect id="Rectangle-2-Copy" stroke="#CE596B" x="0.5" y="0.5" width="44" height="44" rx="22"></rect>
                </g>
            </g>
        </g>
    </g>
</svg>